<svg id="Layer_1" data-name="Layer 1" xmlns="http://www.w3.org/2000/svg" xmlns:xlink="http://www.w3.org/1999/xlink" viewBox="0 0 499.4 637.28"><defs><style>.cls-1{fill:#00ffe4;}.cls-2{fill:#fff;}.cls-3{clip-path:url(#clip-path);}.cls-4{fill:#08b1d5;}.cls-5{fill:#ff445f;}.cls-6{fill:#ffc900;}.cls-7{fill:#1904da;}.cls-8{fill:#183278;}</style><clipPath id="clip-path"><path class="cls-1" d="M279.5,71.08Q266.17,69.69,253,69.19q-13.2.51-26.52,1.89c-48,5-92.5,17-135.69,37.23l9.48,43.75L119,220.13s17.21,51,51.9,91.94c31.06,36.69,73.56,65.13,82.1,69.81,8.54-4.68,51-33.12,82.1-69.81,34.69-41,51.91-91.94,51.91-91.94l18.73-68.07,9.47-43.75C372,88.1,327.45,76.12,279.5,71.08Z"/></clipPath></defs><path class="cls-2" d="M208.2,448.71h4.58V420.27c0-.25,0-.51,0-.76A12.59,12.59,0,1,0,200.2,432.1h.64l4.63-4.61H200.2a8,8,0,1,1,8-8Z"/><path class="cls-2" d="M237.16,406.92v12.75a8.06,8.06,0,1,1-16.12,0V406.92h-4.46v12.75h0a12.53,12.53,0,1,0,25,0V406.92Z"/><path class="cls-2" d="M183.06,415.25c-5-13.17-24.3-10-24.59,4.3a12.7,12.7,0,0,0,11.83,12.64c.27,0,.55,0,.83,0h12.68V419.55A12.6,12.6,0,0,0,183.06,415.25Zm-3.93,12.34h-8a8,8,0,0,1-5.66-13.71h0a8,8,0,0,1,13.65,5.67Z"/><path class="cls-2" d="M270,415.25c-5-13.17-24.3-10-24.59,4.3a12.7,12.7,0,0,0,11.83,12.64c.27,0,.55,0,.83,0h12.68V419.55A12.6,12.6,0,0,0,270,415.25Zm-3.93,12.34h-8a8,8,0,0,1-5.66-13.71h0a8,8,0,0,1,13.65,5.67Z"/><path class="cls-2" d="M185.24,512.78v8.73a23.91,23.91,0,0,1-15.52-5.69,24.2,24.2,0,0,1-8.68-18.6v-43.7h8.68v19.83h15.52v8.78H169.72v15.31A15.53,15.53,0,0,0,185.24,512.78Z"/><path class="cls-2" d="M201.86,473.35h14.91v8.78H201.25v39.37h-8.71V477.68a24.27,24.27,0,0,1,8.71-18.6,23.91,23.91,0,0,1,15.52-5.68v8.72A15.51,15.51,0,0,0,201.86,473.35Z"/><path class="cls-2" d="M257.47,508c-.44,5-5,13.48-16.27,13.48a24.42,24.42,0,0,1-17.15-7.19l6.16-6.17a16,16,0,0,0,11,4.64c3.69-.25,6.66-2.8,6.88-5.81.26-3.44-2.14-5.83-6.88-6.51-2.23-.32-7.64-.84-12.08-4.82a11.78,11.78,0,0,1-2.35-15.09c.88-1.58,4.84-7.2,14.43-7.2a23.53,23.53,0,0,1,15.21,5.41L250.18,485a15.06,15.06,0,0,0-9-3.07c-7.66.05-7.45,4.27-7.45,4.27.07,3.36,3.06,5.17,7.45,5.74C256.17,493.93,257.91,503.1,257.47,508Z"/><path class="cls-2" d="M310.42,500.57H271.58A15.26,15.26,0,0,0,298.43,507h10.19a24,24,0,1,1,1.8-6.45Zm-9.65-8.79a15.32,15.32,0,0,0-28.45,0Z"/><path class="cls-2" d="M350.38,508.29l6.17,6.16a24.08,24.08,0,1,1,0-34.05l-6.17,6.17a15.36,15.36,0,1,0,0,21.72Z"/><path class="cls-1" d="M279.5,71.08Q266.17,69.69,253,69.19q-13.2.51-26.52,1.89c-48,5-92.5,17-135.69,37.23l9.48,43.75L119,220.13s17.21,51,51.9,91.94c31.06,36.69,73.56,65.13,82.1,69.81,8.54-4.68,51-33.12,82.1-69.81,34.69-41,51.91-91.94,51.91-91.94l18.73-68.07,9.47-43.75C372,88.1,327.45,76.12,279.5,71.08Z"/><g class="cls-3"><rect class="cls-4" x="252.97" y="78.79" width="187.44" height="352.98"/><path class="cls-5" d="M392.37,205.52l14.3-34.6C376.6,154.31,334.35,141.5,291.46,137v.51l-.29,0c0,6.14.11,11.64.29,16.71V235.7a353.27,353.27,0,0,1,36.48,5.67,241.16,241.16,0,0,1-29.75,42.45c-19.53,21.89-42.91,41.43-45.22,41.79,0,0-.05,60.43,0,60.46.82.44,55-32.86,88.65-72.65C375.73,273.13,390,220.15,390,220.15a309.25,309.25,0,0,0-54.63-18.3V185.58A279.29,279.29,0,0,1,392.37,205.52Z"/><path class="cls-6" d="M212.38,137.62c-41.52,4.26-78.82,15.45-108.06,31.42l10.22,34.67c27.5-13.18,61-22.43,97.84-26.2Z"/><path class="cls-6" d="M214.46,194.55V235.7A353.27,353.27,0,0,0,178,241.37a241.16,241.16,0,0,0,29.75,42.45c19.53,21.89,42.9,41.43,45.22,41.79,0,0,.05,60.43,0,60.46-.82.44-55-32.86-88.66-72.65-34.1-40.29-48.35-93.27-48.35-93.27,15.85-7.18,37.28-13.84,54.64-18.3C188.45,197.27,214.46,194.55,214.46,194.55Z"/></g><path class="cls-7" d="M253,67.66h0q-13.26.5-26.66,1.9C178.14,74.62,133.37,86.66,90,107l9.52,44,.35,1.27c40.33-17.63,81.94-28.29,126.49-33l3.36-.34v88a30.61,30.61,0,0,1,23.3-10.7Z"/><path class="cls-8" d="M252.93,67.67h0q13.26.51,26.66,1.91c48.19,5.06,93,17.1,136.36,37.42l-9.52,44-.35,1.27c-40.32-17.63-81.94-28.29-126.49-33l-3.36-.34v88a30.61,30.61,0,0,0-23.3-10.7Z"/></svg>